<?xml version="1.0" standalone="no"?>
<!DOCTYPE svg PUBLIC "-//W3C//DTD SVG 20010904//EN"
 "http://www.w3.org/TR/2001/REC-SVG-20010904/DTD/svg10.dtd">
<svg version="1.0" xmlns="http://www.w3.org/2000/svg"
 width="500.000000pt" height="500.000000pt" viewBox="0 0 500.000000 500.000000"
 preserveAspectRatio="xMidYMid meet">

<g transform="translate(0.000000,500.000000) scale(0.100000,-0.100000)"
fill="#000000" stroke="none">
<path d="M2253 4484 c-573 -69 -1103 -400 -1426 -889 -32 -49 -88 -148 -123
-220 -341 -695 -246 -1528 243 -2135 125 -155 325 -330 501 -439 919 -571
2127 -303 2725 604 32 50 88 149 123 220 341 694 246 1529 -243 2135 -77 96
-245 258 -345 333 -420 315 -936 454 -1455 391z m438 -85 c654 -66 1230 -465
1519 -1054 265 -538 265 -1152 0 -1690 -94 -191 -192 -329 -348 -489 -410
-418 -975 -624 -1553 -565 -567 57 -1078 365 -1399 843 -148 220 -249 477
-297 756 -21 118 -23 457 -4 575 116 723 600 1302 1283 1534 255 87 530 118
799 90z"/>
<path d="M2260 4349 c-282 -43 -521 -127 -730 -256 -443 -274 -747 -707 -858
-1222 -25 -117 -26 -143 -26 -371 0 -228 1 -254 26 -371 135 -628 555 -1129
1143 -1362 349 -139 777 -167 1137 -76 622 157 1127 629 1321 1234 70 218 82
301 82 575 0 279 -12 364 -86 585 -161 485 -516 887 -970 1099 -272 127 -502
177 -809 175 -96 -1 -200 -5 -230 -10z m594 -58 c569 -115 1051 -493 1299
-1021 62 -133 110 -278 136 -414 12 -59 21 -109 21 -112 0 -2 -116 -3 -257 -2
l-257 3 -9 40 c-96 443 -434 820 -863 965 -161 55 -232 65 -439 64 -179 -1
-197 -2 -308 -32 -64 -17 -154 -46 -199 -66 -386 -167 -683 -524 -769 -924
l-11 -52 -254 0 c-140 0 -254 3 -254 6 0 3 9 52 20 107 72 356 232 656 494
926 257 264 591 445 942 510 156 29 158 29 389 26 168 -2 232 -7 319 -24z
m-156 -526 c257 -42 491 -157 676 -335 144 -137 244 -284 310 -453 163 -414
104 -881 -155 -1227 -68 -91 -135 -167 -142 -160 -10 10 -247 381 -247 386 0
4 25 33 55 65 72 79 127 173 166 289 31 89 33 104 33 235 1 117 -3 153 -22
218 -74 257 -266 459 -514 542 -68 23 -106 29 -209 33 -161 6 -247 -11 -385
-78 -164 -79 -308 -230 -377 -395 -48 -116 -61 -181 -60 -315 0 -149 22 -241
83 -359 39 -75 124 -191 145 -198 6 -1 45 52 89 118 71 111 77 124 66 147 -11
25 -13 22 -84 -87 l-73 -113 -31 38 c-33 40 -92 144 -92 163 0 16 170 281 180
281 9 0 185 -299 179 -304 -2 -1 -21 -10 -41 -20 -47 -21 -62 -48 -54 -95 4
-29 1 -41 -14 -54 -38 -32 -16 -97 33 -97 12 0 28 -4 36 -9 10 -6 -4 -11 -44
-16 -63 -8 -109 -41 -103 -72 5 -27 79 -77 142 -97 36 -12 56 -23 53 -31 -3
-6 -1 -18 4 -26 7 -11 9 -10 10 6 l0 20 9 -20 c7 -16 9 -16 9 -4 1 16 20 29
43 29 7 0 8 -19 3 -57 -4 -32 -11 -85 -15 -118 -4 -33 -15 -85 -24 -115 -17
-60 -21 -196 -7 -220 17 -25 3 -28 -76 -13 -234 43 -457 160 -637 333 -189
181 -315 405 -371 660 -25 114 -31 335 -12 456 65 409 325 766 692 952 91 46
261 100 361 116 121 19 299 19 412 1z m97 -468 c232 -64 416 -228 504 -448 42
-104 55 -192 48 -323 -6 -123 -26 -198 -83 -307 -38 -71 -141 -202 -154 -194
-4 2 -54 77 -111 166 -98 153 -102 163 -101 212 l1 52 -13 -34 -12 -34 -154
237 c-123 191 -155 235 -165 224 -7 -7 -74 -109 -150 -226 -82 -126 -142 -209
-147 -204 -5 5 -40 62 -78 126 l-68 117 -44 -68 c-24 -37 -71 -110 -103 -161
l-60 -94 -13 44 c-8 23 -16 95 -19 158 -6 150 11 233 76 365 112 227 301 363
571 409 45 8 224 -3 275 -17z m-71 -764 c75 -117 139 -219 142 -226 5 -14 -21
-170 -59 -347 -25 -121 -34 -128 -99 -84 -60 42 -70 62 -59 118 8 43 5 70 -14
133 -5 15 -1 27 14 39 11 10 26 41 32 71 11 47 10 55 -6 73 -27 30 -76 26
-114 -9 -17 -16 -31 -39 -31 -51 0 -29 -20 -21 -40 15 -19 34 -72 50 -132 41
-34 -6 -39 -3 -53 23 -15 30 -15 30 122 240 118 182 138 208 148 193 7 -9 74
-113 149 -229z m-1539 -33 l0 -200 -250 2 -250 3 -3 185 c-1 101 0 190 2 197
4 10 61 13 253 13 l248 0 0 -200z m3135 97 c3 -53 3 -141 0 -195 l-5 -97 -255
-3 -255 -2 0 200 0 200 255 -2 255 -3 5 -98z m-1196 -686 l228 -353 -29 -30
c-71 -75 -288 -197 -428 -241 -85 -26 -194 -51 -200 -45 -13 13 74 480 102
550 8 20 12 41 9 46 -6 10 -4 26 39 232 13 63 27 137 30 164 4 26 10 44 14 40
5 -5 110 -168 235 -363z m-1918 322 c12 -54 16 -69 41 -148 75 -238 244 -473
456 -634 166 -125 331 -199 539 -241 123 -25 376 -28 498 -4 500 94 903 470
1034 961 l23 88 256 3 c142 1 257 0 257 -2 0 -3 -9 -53 -21 -112 -95 -493
-405 -933 -849 -1206 -210 -129 -419 -204 -674 -243 -165 -26 -477 -17 -642
19 -684 146 -1241 689 -1397 1361 -14 61 -28 127 -32 148 l-6 37 255 0 256 0
6 -27z m1532 -427 c32 -17 33 -18 26 -64 -4 -26 -13 -65 -21 -87 -10 -29 -73
-366 -73 -392 0 -6 -65 8 -71 15 -13 14 -21 72 -10 72 6 0 11 9 11 20 0 10 10
45 21 76 20 54 21 64 10 158 -7 56 -16 113 -20 128 -5 14 -7 48 -4 75 3 32 1
43 -5 34 -7 -10 -11 -10 -17 -1 -4 7 -2 16 5 20 9 6 9 12 0 30 -9 17 2 12 51
-23 35 -24 79 -52 97 -61z m-228 -252 c0 -7 7 -20 16 -29 13 -13 14 -21 6 -38
-10 -21 -15 -57 -28 -199 -6 -58 -10 -68 -26 -68 -10 0 -21 7 -24 15 -4 8 -15
15 -26 15 -19 0 -20 5 -15 73 3 49 13 90 32 130 15 32 27 75 27 95 0 20 2 41
6 46 6 10 32 -22 32 -40z"/>
<path d="M1720 2048 c-68 -106 -125 -200 -127 -209 -4 -13 25 -37 32 -27 0 2
56 89 124 195 114 179 122 194 108 213 -13 19 -21 10 -137 -172z"/>
<path d="M2250 1753 c0 -13 5 -23 10 -23 13 0 13 11 0 30 -8 12 -10 11 -10 -7z"/>
<path d="M2367 3092 c-36 -37 -37 -39 -19 -55 18 -16 20 -16 37 3 l18 20 22
-20 c19 -18 23 -19 35 -6 10 13 7 22 -20 56 -17 22 -33 40 -34 40 -1 0 -19
-17 -39 -38z"/>
<path d="M2247 2982 c-36 -37 -37 -39 -19 -55 18 -16 20 -16 37 3 l18 20 24
-22 c22 -21 24 -21 40 -5 17 16 15 20 -23 57 l-40 40 -37 -38z"/>
<path d="M787 2602 c-25 -27 -22 -52 7 -52 13 0 26 7 30 15 9 24 26 18 26 -9
0 -15 -15 -38 -40 -62 -24 -23 -40 -47 -40 -61 0 -22 4 -23 70 -23 68 0 70 1
70 25 0 21 -5 25 -31 25 l-31 0 31 35 c34 40 41 84 15 109 -22 22 -87 21 -107
-2z"/>
<path d="M968 2609 c-27 -15 -41 -81 -28 -129 14 -51 47 -75 95 -66 43 8 65
46 65 109 0 61 -29 97 -78 97 -20 0 -45 -5 -54 -11z m67 -50 c12 -18 7 -81 -6
-90 -21 -13 -39 10 -39 51 0 20 3 40 7 43 10 10 31 8 38 -4z"/>
<path d="M3928 2603 c-8 -10 -18 -26 -21 -35 -5 -15 -1 -18 22 -18 17 0 31 6
35 16 3 8 10 12 16 9 20 -13 9 -41 -36 -86 -63 -64 -57 -79 36 -79 68 0 70 1
70 25 0 21 -5 25 -32 25 l-32 0 27 28 c36 37 45 86 22 112 -23 26 -86 27 -107
3z"/>
<path d="M4093 2608 c-6 -7 -13 -21 -16 -30 -5 -14 -1 -18 21 -18 16 0 33 5
39 11 8 8 13 7 18 -2 5 -7 1 -17 -8 -24 -23 -17 -21 -40 6 -58 21 -15 21 -15
3 -23 -13 -5 -21 -3 -24 4 -2 7 -17 12 -34 12 -26 0 -29 -3 -23 -22 10 -32 33
-48 70 -48 62 0 98 56 59 94 -14 15 -14 17 0 32 20 19 20 34 0 62 -12 17 -25
22 -58 22 -24 0 -48 -6 -53 -12z"/>
<path d="M3882 1998 c-18 -44 -31 -82 -29 -84 13 -13 202 -83 207 -77 4 5 21
42 37 85 30 73 30 76 11 81 -15 4 -23 -4 -39 -40 -10 -24 -19 -49 -19 -54 0
-13 -37 -11 -45 2 -4 6 1 31 10 56 15 38 15 47 4 54 -22 14 -24 12 -43 -41
-16 -44 -21 -50 -40 -44 -30 9 -30 9 -11 56 9 24 19 48 22 55 2 6 -4 16 -14
21 -17 9 -22 1 -51 -70z"/>
<path d="M944 2016 c-28 -28 -34 -42 -34 -75 0 -81 45 -131 118 -131 37 0 50
6 79 35 33 33 35 39 31 87 -5 44 -11 57 -42 85 -51 47 -104 47 -152 -1z m111
-26 c76 -29 31 -144 -51 -128 -9 1 -26 15 -37 30 -17 23 -18 31 -8 56 7 16 22
34 34 40 28 14 31 14 62 2z"/>
<path d="M3823 1843 c-20 -7 -86 -124 -77 -133 13 -12 186 -111 189 -108 1 2
7 12 13 24 10 18 7 23 -13 34 -45 24 -24 60 35 60 30 0 39 5 48 25 11 24 11
25 -29 25 -36 0 -41 3 -51 30 -5 17 -18 35 -28 40 -19 10 -66 12 -87 3z m67
-58 c11 -13 10 -22 -3 -51 -17 -34 -17 -34 -46 -19 -41 21 -44 29 -20 59 23
29 50 34 69 11z"/>
<path d="M1113 1800 c-70 -45 -83 -63 -83 -115 0 -47 53 -105 96 -105 27 0
164 75 164 89 0 4 -6 15 -13 25 -12 17 -17 15 -80 -24 -70 -44 -98 -46 -117
-9 -16 29 3 55 68 96 31 20 58 37 60 39 6 4 -18 44 -26 44 -4 0 -35 -18 -69
-40z"/>
<path d="M3698 1664 c-15 -15 -11 -21 48 -71 67 -57 76 -79 46 -106 -28 -25
-44 -21 -108 28 -31 25 -61 45 -65 45 -3 0 -13 -7 -20 -16 -12 -15 -9 -21 26
-52 84 -73 121 -85 174 -57 26 13 61 67 61 95 0 27 -33 70 -83 108 -30 23 -56
42 -58 42 -3 0 -12 -7 -21 -16z"/>
<path d="M1292 1648 c-16 -16 -15 -28 5 -51 20 -21 26 -12 -80 -105 -32 -27
-36 -35 -27 -52 6 -11 13 -20 17 -20 3 0 37 26 76 57 l69 57 23 -26 c21 -24
24 -25 38 -10 15 14 11 21 -40 81 -31 36 -59 69 -63 74 -3 4 -11 2 -18 -5z"/>
<path d="M3502 1448 c-36 -35 -61 -67 -58 -74 8 -20 30 -17 52 7 l19 21 62
-68 c61 -67 62 -68 82 -50 20 18 20 19 -39 84 -33 36 -60 68 -60 73 0 4 10 15
21 23 23 15 20 46 -3 46 -7 0 -41 -28 -76 -62z"/>
<path d="M1359 1408 l-72 -82 34 -29 c80 -68 123 -81 178 -52 28 14 61 68 61
100 0 9 -5 26 -11 38 -16 31 -91 107 -105 107 -7 0 -45 -37 -85 -82z m146 -39
c7 -22 -18 -74 -40 -83 -32 -12 -62 -6 -83 17 l-22 23 46 52 47 53 23 -22 c13
-12 26 -30 29 -40z"/>
<path d="M3397 1358 c-16 -12 -14 -17 19 -66 19 -30 33 -56 31 -59 -3 -2 -37
7 -77 21 -83 30 -81 30 -105 12 -17 -12 -15 -18 45 -105 35 -50 67 -91 70 -91
4 0 13 7 20 15 11 13 6 25 -24 70 -20 30 -33 55 -29 55 5 0 43 -12 85 -26 67
-22 80 -24 97 -12 18 13 16 18 -42 105 -34 51 -65 92 -68 93 -3 0 -13 -6 -22
-12z"/>
<path d="M1605 1300 c-89 -36 -96 -159 -12 -210 91 -56 204 24 176 124 -20 69
-102 112 -164 86z m95 -60 c42 -42 11 -120 -47 -120 -34 0 -46 8 -62 38 -10
19 -10 30 -1 53 22 51 74 65 110 29z"/>
<path d="M3140 1203 c-41 -19 -76 -36 -78 -37 -1 -2 17 -45 42 -95 24 -50 46
-96 48 -102 3 -10 168 59 168 70 0 3 -4 12 -9 20 -7 11 -19 9 -65 -12 -56 -26
-56 -26 -67 -6 -13 25 -12 26 46 53 41 19 45 23 33 38 -12 16 -16 16 -61 -4
-41 -18 -50 -19 -58 -7 -15 23 -11 28 46 57 48 24 54 30 43 44 -12 14 -20 12
-88 -19z"/>
<path d="M1818 1160 c-60 -47 -61 -128 -2 -179 94 -83 237 10 190 123 -29 69
-133 100 -188 56z m125 -48 c25 -22 21 -68 -8 -97 -37 -38 -76 -32 -101 17
-12 24 -13 33 -2 55 24 50 70 60 111 25z"/>
<path d="M3020 1150 c-24 -6 -25 -10 -30 -100 l-5 -94 -52 72 c-50 69 -72 82
-99 64 -7 -4 15 -40 63 -100 68 -86 77 -93 101 -87 15 4 28 7 28 8 2 2 21 241
20 243 -1 0 -12 -2 -26 -6z"/>
<path d="M2064 1092 c-3 -15 -15 -62 -25 -105 -11 -43 -17 -82 -14 -87 9 -14
45 -12 49 3 14 46 15 47 38 38 12 -4 27 -22 33 -41 8 -24 20 -36 38 -41 31 -8
31 -7 15 37 -10 29 -9 34 15 56 14 12 27 32 28 43 6 70 -10 86 -109 109 l-62
14 -6 -26z m110 -45 c11 -8 17 -23 14 -38 -2 -19 -10 -25 -37 -27 -43 -4 -55
8 -46 47 7 34 36 42 69 18z"/>
<path d="M2625 1063 c-21 -4 -21 -5 -6 -115 l15 -110 58 6 c78 8 116 29 135
74 12 29 13 43 4 73 -18 58 -52 79 -125 78 -33 -1 -70 -4 -81 -6z m135 -53
c25 -25 26 -81 3 -103 -10 -8 -31 -17 -48 -19 -30 -3 -30 -2 -41 62 -6 36 -9
68 -7 73 9 15 73 7 93 -13z"/>
<path d="M2390 954 c-28 -58 -50 -110 -50 -115 0 -5 11 -9 23 -9 16 0 28 9 35
25 12 26 32 30 90 19 18 -4 32 -14 35 -25 3 -13 14 -19 31 -19 14 0 26 3 26 7
0 5 -19 56 -41 115 -40 103 -43 108 -71 108 -27 0 -32 -7 -78 -106z m100 -37
c-7 -8 -60 1 -60 9 0 3 7 21 16 42 l16 37 18 -40 c10 -22 14 -44 10 -48z"/>
</g>
</svg>
